# xmcd
#
# Track frame offsets: 
#        150
#        15634
#        36607
#        53184
#        71972
#        94997
#        111395
#        131987
#        150860
#        168179
#        192842
#        217133
#
# Disc length: 3154 seconds
#
# Revision: 1
# Processed by: cddbd v1.5.2PL0 Copyright (c) Steve Scherf et al.
# Submitted via: ExactAudioCopyFreeDBPlugin 1.0
#
DISCID=b30c500c
DTITLE=Arndt,Richie and Timo Gross and Alex Conti - The Vineyard Sessions 
DTITLE=Vol.2
DYEAR=2010
DGENRE=Blues
TTITLE0=Bad
TTITLE1=Free Wheelin'
TTITLE2=I Just Take What I Need
TTITLE3=Rusty Nail
TTITLE4=Passionate Eyes
TTITLE5=Happy Without A Reason
TTITLE6=Slow Down
TTITLE7=The Future
TTITLE8=Western Plain
TTITLE9=Ted Nugent And The Gunners Blues
TTITLE10=Ceo Blues
TTITLE11=Will You Take Me
EXTD=YEAR: 2010
EXTT0=
EXTT1=
EXTT2=
EXTT3=
EXTT4=
EXTT5=
EXTT6=
EXTT7=
EXTT8=
EXTT9=
EXTT10=
EXTT11=
PLAYORDER=
